<?xml version="1.0" standalone="no"?>
<!DOCTYPE svg PUBLIC "-//W3C//DTD SVG 20010904//EN"
 "http://www.w3.org/TR/2001/REC-SVG-20010904/DTD/svg10.dtd">
<svg version="1.0" xmlns="http://www.w3.org/2000/svg"
 width="300.000000pt" height="300.000000pt" viewBox="0 0 300.000000 300.000000"
 preserveAspectRatio="xMidYMid meet">
<metadata>
Created by potrace 1.10, written by Peter Selinger 2001-2011
</metadata>
<g transform="translate(0.000000,300.000000) scale(0.100000,-0.100000)"
fill="#000000" stroke="none">
<path d="M125 2976 c-43 -19 -103 -89 -110 -130 -12 -62 1 -63 35 -2 23 41 47
67 79 87 25 15 55 35 66 43 19 15 19 15 -10 15 -16 0 -43 -6 -60 -13z"/>
<path d="M2794 2981 c3 -5 31 -23 61 -40 43 -24 62 -43 86 -86 36 -65 49 -75
49 -41 0 82 -93 176 -175 176 -15 0 -24 -4 -21 -9z"/>
<path d="M630 2455 c-40 -48 -12 -211 61 -356 32 -66 45 -99 36 -99 -8 0 -22
-9 -32 -20 -41 -46 15 -210 110 -317 44 -50 46 -54 31 -75 -9 -12 -16 -31 -16
-42 0 -60 98 -186 190 -244 30 -19 57 -37 59 -38 2 -2 -2 -15 -9 -29 -19 -35
0 -73 66 -135 47 -44 108 -80 178 -104 15 -5 17 -9 8 -18 -19 -19 -14 -35 20
-73 43 -49 120 -87 193 -94 51 -5 60 -9 57 -24 -10 -56 74 -107 175 -107 66 0
69 -1 96 -35 32 -40 91 -60 146 -50 69 12 202 68 221 93 l20 24 31 -26 c38
-32 54 -33 73 -3 13 20 14 30 1 83 -8 34 -26 141 -40 238 -35 246 -71 336
-177 446 -68 72 -149 120 -498 295 -374 187 -460 236 -617 353 -131 99 -198
165 -262 262 -74 110 -95 126 -121 95z m107 -144 c51 -68 158 -173 233 -230
174 -131 260 -181 705 -404 350 -176 401 -210 480 -317 59 -81 81 -150 110
-346 14 -98 35 -212 46 -253 11 -40 17 -76 14 -80 -18 -18 -95 120 -145 259
-90 251 -129 320 -232 405 -98 81 -151 109 -440 226 -275 111 -419 179 -498
232 -135 91 -234 204 -298 337 -46 96 -62 163 -62 253 l0 62 30 -54 c16 -30
42 -70 57 -90z m29 -387 c62 -59 244 -179 352 -233 45 -23 182 -82 304 -131
122 -50 246 -105 276 -123 65 -39 192 -154 192 -173 0 -18 -14 -18 -30 0 -16
20 -154 72 -259 97 -240 58 -464 125 -536 160 -198 95 -319 237 -351 412 -3
20 -4 37 -2 37 2 0 26 -21 54 -46z m357 -479 c52 -19 164 -50 249 -70 261 -62
369 -95 437 -131 74 -38 161 -100 161 -112 0 -5 -31 2 -69 14 -91 30 -202 48
-437 74 -105 11 -224 30 -265 41 -148 41 -261 122 -317 227 -50 93 -44 97 57
41 48 -28 131 -65 184 -84z m879 -209 c47 -65 86 -149 130 -280 22 -66 46
-131 54 -144 8 -12 19 -33 24 -46 l9 -25 -34 20 c-29 18 -33 25 -29 48 5 24 0
33 -30 56 -20 15 -33 31 -31 36 3 4 -11 26 -31 49 -22 24 -34 46 -30 55 3 9
-9 31 -31 56 -27 30 -33 43 -25 51 21 21 13 43 -28 83 -28 27 -38 45 -34 57 3
10 -2 32 -10 50 -9 17 -16 33 -16 35 0 12 86 -66 112 -101z m-877 -16 c37 -14
169 -36 295 -50 276 -30 336 -39 419 -65 73 -23 202 -94 171 -94 -8 -1 -35 4
-60 10 -51 12 -245 14 -394 4 -128 -8 -250 7 -320 40 -74 35 -194 165 -152
165 8 0 27 -5 41 -10z m873 -269 c39 -19 72 -37 72 -42 0 -4 -35 -5 -77 -2
-62 4 -102 -1 -193 -22 -151 -36 -285 -43 -347 -20 -42 16 -123 78 -123 94 0
3 48 6 107 7 60 0 144 5 188 11 44 6 130 10 190 9 102 -1 115 -4 183 -35z m95
-108 c26 -10 47 -20 47 -24 0 -3 -24 -9 -52 -11 -31 -3 -91 -21 -143 -43 -76
-33 -104 -40 -175 -43 -77 -3 -88 -2 -120 20 -19 13 -34 28 -33 33 3 11 228
74 303 85 65 9 108 5 173 -17z m75 -113 c36 -22 42 -40 12 -40 -11 0 -48 -12
-83 -26 -83 -34 -142 -40 -190 -21 -20 9 -37 20 -37 25 0 5 37 25 83 45 97 43
163 48 215 17z"/>
<path d="M10 185 c0 -67 77 -158 144 -170 60 -12 62 0 5 34 -65 40 -81 56
-108 109 -26 51 -41 61 -41 27z"/>
<path d="M2965 185 c-51 -84 -70 -104 -115 -129 -60 -32 -70 -46 -35 -46 67 0
158 77 170 144 10 52 1 65 -20 31z"/>
</g>
</svg>
